<svg version="1.2" xmlns="http://www.w3.org/2000/svg" viewBox="0 0 1179 1525" width="1179" height="1525">
	<title>PowerSchoolLogos_Horizontal-01-ai-svg</title>
	<style>
		.s0 { fill: #00b6ef } 
	</style>
	<g id="Layer 1">
		<g id="&lt;Group&gt;">
			<g id="&lt;Group&gt;">
				<path id="&lt;Path&gt;" class="s0" d="m632.9 0.2h-258.3c-6.9 0-12.9 2.3-18 5.5-8.8 5.5-14.8 15.2-14.8 26.3v1430.5h-109.8v-1430.5c0-17.1-13.8-30.9-30.9-30.9h-169.7c-16.6 0-30.5 13.8-30.5 30.9v1460c0 16.2 11.6 30.5 27.7 31.8 18.5 1.9 33.7-12.4 33.7-30.4v-1430.5h107.9v1430.5c0 17.1 13.9 30.9 30.9 30.9h171.7c17 0 30.9-13.8 30.9-30.9v-1408.3c0-13 10.1-23.6 23-23.6h206.2c270.8 0 483.5 216.9 483.5 493.8 0 276.4-212.7 493.3-483.5 493.3h-59.9v-92.8h27.6c219.2 0 397.7-176.3 400.9-393.6 3.3-224.3-183.6-407.5-407.3-407.5h-52.1c-17.1 0-30.9 13.9-30.9 31v162.4c0 11.5 5.9 21.2 14.7 26.3 5.6 4.6 12.5 7.4 20.3 7.4h30.5c90.4 0 167 70.1 170.7 160.6 3.6 94.5-72.5 173-166.6 173h-37.4c-16.1 0-30.4 11.5-31.8 27.7-1.8 18.4 12.5 33.7 30.5 33.7h34.1c124.1 0 229.3-96.9 233-221.5 3.7-128.8-100.1-234.9-228.4-234.9h-7.8v-103.8h21.2c189.6 0 348.3 155 346 344.2-2.8 184.1-154.1 333.2-339.6 333.2h-58.5c-17.1 0-30.9 13.8-30.9 30.9v154.6c0 17 13.8 30.9 30.9 30.9h90.8c305.4 0 545.3-244.1 545.3-555.1 0-311.5-239.9-555.1-545.3-555.1z"/>
			</g>
		</g>
	</g>
</svg>